<svg width="73" height="73" viewBox="0 0 73 73" xmlns="http://www.w3.org/2000/svg" xmlns:xlink="http://www.w3.org/1999/xlink">
    <g id="Regular-S">
        <path id="Path" fill="#000000" stroke="none" d="M 12.726807 72.390625 L 58.967041 72.390625 C 63.133667 72.390625 66.25061 71.365234 68.317627 69.314453 C 70.384644 67.263672 71.418213 64.1875 71.418213 60.085938 L 71.418213 13.503906 C 71.418213 9.402344 70.384644 6.326172 68.317627 4.275391 C 66.25061 2.224609 63.133667 1.199219 58.967041 1.199219 L 12.726807 1.199219 C 8.592651 1.199219 5.484009 2.224609 3.400635 4.275391 C 1.317261 6.326172 0.275635 9.402344 0.275635 13.503906 L 0.275635 60.085938 C 0.275635 64.1875 1.317261 67.263672 3.400635 69.314453 C 5.484009 71.365234 8.592651 72.390625 12.726807 72.390625 Z M 12.824463 65.310547 C 11.06665 65.310547 9.707642 64.84668 8.747314 63.918945 C 7.786987 62.991211 7.306885 61.599609 7.306885 59.744141 L 7.306885 13.845703 C 7.306885 12.022827 7.786987 10.639282 8.747314 9.695313 C 9.707642 8.751343 11.06665 8.279297 12.824463 8.279297 L 58.869385 8.279297 C 60.627197 8.279297 61.986206 8.751343 62.946533 9.695313 C 63.90686 10.639282 64.386963 12.022827 64.386963 13.845703 L 64.386963 59.744141 C 64.386963 61.599609 63.90686 62.991211 62.946533 63.918945 C 61.986206 64.84668 60.627197 65.310547 58.869385 65.310547 Z M 17.902588 36.746094 C 17.902588 37.820313 18.244385 38.69104 18.927979 39.358398 C 19.611572 40.025757 20.523071 40.359375 21.662354 40.359375 L 32.209229 40.359375 L 32.209229 50.955078 C 32.209229 52.029297 32.53479 52.916382 33.185791 53.616211 C 33.836792 54.31604 34.715698 54.666016 35.82251 54.666016 C 36.896729 54.666016 37.783813 54.31604 38.483643 53.616211 C 39.183472 52.916382 39.533447 52.029297 39.533447 50.955078 L 39.533447 40.359375 L 50.080322 40.359375 C 51.187134 40.359375 52.082275 40.025757 52.765869 39.358398 C 53.449463 38.69104 53.79126 37.820313 53.79126 36.746094 C 53.79126 35.639282 53.449463 34.744141 52.765869 34.060547 C 52.082275 33.376953 51.187134 33.035156 50.080322 33.035156 L 39.533447 33.035156 L 39.533447 22.488281 C 39.533447 21.38147 39.183472 20.478149 38.483643 19.77832 C 37.783813 19.078491 36.896729 18.728516 35.82251 18.728516 C 34.715698 18.728516 33.836792 19.078491 33.185791 19.77832 C 32.53479 20.478149 32.209229 21.38147 32.209229 22.488281 L 32.209229 33.035156 L 21.662354 33.035156 C 20.523071 33.035156 19.611572 33.376953 18.927979 34.060547 C 18.244385 34.744141 17.902588 35.639282 17.902588 36.746094 Z"/>
    </g>
</svg>
